<svg xmlns="http://www.w3.org/2000/svg" viewBox="0 0 512 512" role="img" aria-labelledby="title desc">
  <title id="title">CreditChain logo</title>
  <desc id="desc">Overlapping translucent chain petals forming a CreditChain mark.</desc>
  <defs>
    <style>
      .edge { fill: none; stroke: #102d5c; stroke-width: 2.2; stroke-linejoin: round; stroke-linecap: round; }
      .soft-edge { fill: none; stroke: #102d5c; stroke-width: 1.8; stroke-linejoin: round; stroke-linecap: round; opacity: .5; }
      .blue { fill: #dcecf7; fill-opacity: .72; }
      .ice { fill: #eef7ef; fill-opacity: .76; }
      .peach { fill: #f6dfc8; fill-opacity: .74; }
      .mist { fill: #d8e9f3; fill-opacity: .55; }
    </style>
  </defs>
  <g transform="translate(27 56) scale(1.47)">
    <path class="ice edge" d="M2.5 126.6C12 78.4 37.2 28.8 77.4 3.2c28.8 31.5 44.2 64.8 32.6 99.1-30.1 8.5-61.5 20.2-84.8 38.8Z"/>
    <path class="ice edge" d="M308.5 126.6c-9.5-48.2-34.7-97.8-74.9-123.4-28.8 31.5-44.2 64.8-32.6 99.1 30.1 8.5 61.5 20.2 84.8 38.8Z"/>
    <path class="mist edge" d="M42.4 82.2c21.8-40.2 78.6-48 113.1-25.5 34.5-22.5 91.3-14.7 113.1 25.5-18.2 39.1-67.8 55.9-113.1 44.7-45.3 11.2-94.9-5.6-113.1-44.7Z"/>
    <path class="peach edge" d="M74.8 126.9c14.2-34.6 53.7-40 82.9-20.8 10.6 32.4.3 69.1-25.5 94.4-24.7 5.6-50.7-2-68.9-17.9-2.2-20.9 1.2-40.1 11.5-55.7Z"/>
    <path class="blue edge" d="M236.2 126.9c-14.2-34.6-53.7-40-82.9-20.8-10.6 32.4-.3 69.1 25.5 94.4 24.7 5.6 50.7-2 68.9-17.9 2.2-20.9-1.2-40.1-11.5-55.7Z"/>
    <path class="ice edge" d="M99.8 111.1c21.4-23.2 89-17.1 110.8 0 19.1 22.2 19.9 57.8 4 88.8-22.9 18.7-94.8 18.7-117.7 0-15.9-31-15.1-66.6 2.9-88.8Z"/>
    <path class="blue edge" d="M155.5 134.3c42.1 14.2 70.4 45.1 76.2 90.3-30.5 32.1-82.2 48.8-152.3 39.4 9.2-57.3 31.7-101.3 76.1-129.7Z"/>
    <path class="peach edge" d="M155.5 134.3c38.8 26.2 63.8 69.8 68.3 129.9-38.4 7.5-78.1-9.6-98.8-43.1 8.1-33.7 15.7-61.6 30.5-86.8Z"/>
    <path class="blue edge" d="M155.4 116.8c-21.4 8.6-22.8 41.9-5.5 72.6 28.3-16.6 38.2-47.1 29.9-68.6-7.1-4.2-15.3-5.7-24.4-4Z"/>
    <path class="soft-edge" d="M111 34.2c-21.3 19.6-21.1 59.4-.6 79.2"/>
    <path class="soft-edge" d="M200 34.2c21.3 19.6 21.1 59.4.6 79.2"/>
    <path class="soft-edge" d="M155.5 56.7c-37.4 12.5-57.3 50.4-46.7 88.5"/>
    <path class="soft-edge" d="M155.5 56.7c37.4 12.5 57.3 50.4 46.7 88.5"/>
    <path fill="#071530" d="M139.5 141.7c4.1-21.2 27.6-21.2 32 0-9.6 3.4-21.7 3.4-32 0Z"/>
  </g>
</svg>
